<svg width="450" height="100" xmlns="http://www.w3.org/2000/svg" version="1.1">
 <g id="Layer_1">
    <title>Layer 1</title>
    <g transform="matrix(0.098,0,0,0.098,0,0)" id="svg_1">
        <path d="m917,696.3l-397.8,0c-11,0 -20,-9 -20,-20s9,-20 20,-20l377.8,0l0,-460l-760,0l0,460l310.9,0c11,0 20,9 20,20s-9,20 -20,20l-330.9,0c-11,0 -20,-9 -20,-20l0,-500c0,-11 9,-20 20,-20l800,0c11,0 20,9 20,20l0,500c0,11.1 -9,20 -20,20z" fill="#1995FC" id="svg_2" xmlns="http://www.w3.org/2000/svg"/>
        <path d="m517,875.1c-11,0 -20,-9 -20,-20l0,-180c0,-11 9,-20 20,-20s20,9 20,20l0,180c0,11.1 -9,20 -20,20z" fill="#21E7BF" id="svg_3" xmlns="http://www.w3.org/2000/svg"/>
        <path d="m719,876.6l-404,0c-11,0 -20,-9 -20,-20s9,-20 20,-20l404,0c11,0 20,9 20,20s-9,20 -20,20zm-504.4,-539.8c-5.1,0 -10.2,-2 -14.1,-5.9c-7.8,-7.8 -7.8,-20.5 0,-28.3l76,-76c7.8,-7.8 20.5,-7.8 28.3,0s7.8,20.5 0,28.3l-76,76c-4,4 -9.1,5.9 -14.2,5.9zm1.5,120.5c-5.1,0 -10.2,-2 -14.1,-5.9c-7.8,-7.8 -7.8,-20.5 0,-28.3l184,-184c7.8,-7.8 20.5,-7.8 28.3,0s7.8,20.5 0,28.3l-184,184c-4,4 -9.1,5.9 -14.2,5.9z" fill="#1995FC" id="svg_4" xmlns="http://www.w3.org/2000/svg"/>
    </g>
    <text fill="#ffffff" x="100" y="82.5" id="svg_5" stroke-width="0" font-size="90" font-family="Noto Sans JP" text-anchor="start" xml:space="preserve">XPiKVM</text>
 </g>
</svg>